<svg width="472" height="471" viewBox="0 0 472 471" fill="none" xmlns="http://www.w3.org/2000/svg">
<path d="M0 0H472V470.775L358.742 470.728H141.939H46.048L15.9651 470.74C11.5053 470.742 4.25758 470.975 0 470.617V0Z" fill="#00216C"/>
<path d="M19.8302 276.237C39.6346 276.455 59.4404 276.512 79.2454 276.407C101.141 276.5 123.036 276.45 144.931 276.257C144.951 286.235 144.698 297.132 144.928 306.987L56.9974 307.04C56.5131 310.455 56.7511 321.437 56.7324 325.192C56.7134 329.022 56.9989 339.982 56.9989 343.497C60.4592 343.497 67.1574 343.505 71.7651 343.497H118C122.686 343.49 134.167 343.497 138.119 343.497C138.119 352 138.095 363.737 138.091 372.412L63.1871 372.48C61.1239 372.5 59.0611 372.545 56.9989 372.612C56.5791 375.532 56.6709 386.362 56.7386 390.042C56.8816 397.817 56.4354 407.175 56.8619 414.795C60.9854 415.102 65.8564 414.962 70.0734 414.957L90.4976 414.952C109.136 414.952 128.346 415.182 146.953 414.857C146.575 424.41 146.819 435.845 146.784 445.577C104.704 445.102 61.9981 445.605 19.8551 445.547C19.5009 424.86 19.8054 403.247 19.8039 382.512L19.8302 276.237Z" fill="#FEFEFE"/>
<path d="M379.902 272.108C382.524 271.803 386.724 272.263 389.417 272.498C403.434 273.723 416.914 278.128 428.387 286.445C440.124 294.935 448.547 307.243 452.209 321.258C453.174 324.905 453.732 328.913 454.329 332.66C450.524 333.333 443.242 333.243 439.359 333.255C432.982 333.275 426.264 333.335 419.909 332.95C418.054 327.565 416.479 322.65 412.894 318.13C406.322 309.855 397.897 304.44 387.319 303.288C357.862 299.868 339.862 320.368 336.677 348.42C333.872 373.1 337.709 401.805 362.307 414.87C366.114 416.893 372.044 418.065 376.232 418.535C386.007 419.635 397.064 418.348 404.892 411.888C413.817 404.528 418.687 394.423 419.867 383.058C419.907 382.925 420.109 381.29 420.139 381.058C431.894 380.828 443.867 381.205 455.547 380.898C454.377 397.695 449.024 412.735 438.049 425.575C411.267 456.913 356.907 456.295 327.109 429.633C310.027 414.348 301.322 391.753 299.774 369.083C298.104 344.593 304.457 317.458 320.899 298.673C337.252 280.258 355.884 273.593 379.902 272.108Z" fill="#FEFEFE"/>
<path d="M288.412 276.377L298.497 276.255L298.532 306.955C287.942 307.12 277.227 306.895 266.627 306.982C260.35 307.035 254.31 306.807 248.033 307.347C247.625 311.95 247.816 318.795 247.821 323.537L247.828 350.9C247.833 382.257 248.1 414.127 247.725 445.445C235.675 445.567 223.624 445.577 211.573 445.475C211.749 431.98 211.592 418.147 211.591 404.625L211.594 342.555C211.594 331.075 211.821 318.675 211.467 307.267C206.665 306.732 198.396 306.987 193.273 306.987L160.824 306.965C161.106 304.117 160.971 299.007 160.973 296.057L160.971 276.485C176.326 276.367 191.681 276.337 207.037 276.39L288.412 276.377Z" fill="#FEFEFE"/>
</svg>
